<svg width="60" height="66" viewBox="0 0 60 66" fill="none" xmlns="http://www.w3.org/2000/svg">
<path d="M48.8825 8.5275C48.6225 8.5275 48.3625 8.4625 48.135 8.3325C41.895 5.115 36.5 3.75 30.0325 3.75C23.5975 3.75 17.4875 5.2775 11.93 8.3325C11.15 8.755 10.175 8.4625 9.72001 7.6825C9.29751 6.9025 9.59001 5.895 10.37 5.4725C16.415 2.19 23.045 0.5 30.0325 0.5C36.955 0.5 43 2.0275 49.63 5.44C50.4425 5.8625 50.735 6.8375 50.3125 7.6175C50.02 8.2025 49.4675 8.5275 48.8825 8.5275ZM2.37501 25.59C2.05001 25.59 1.72501 25.4925 1.43251 25.2975C0.685012 24.7775 0.522512 23.77 1.04251 23.0225C4.26001 18.4725 8.35501 14.8975 13.23 12.395C23.435 7.13 36.5 7.0975 46.7375 12.3625C51.6125 14.865 55.7075 18.4075 58.925 22.925C59.445 23.64 59.2825 24.68 58.535 25.2C57.7875 25.72 56.78 25.5575 56.26 24.81C53.335 20.715 49.63 17.4975 45.2425 15.255C35.915 10.4775 23.9875 10.4775 14.6925 15.2875C10.2725 17.5625 6.56751 20.8125 3.64251 24.9075C3.38251 25.3625 2.89501 25.59 2.37501 25.59ZM22.6875 64.8175C22.265 64.8175 21.8425 64.655 21.55 64.33C18.7225 61.5025 17.195 59.6825 15.0175 55.75C12.775 51.7525 11.605 46.8775 11.605 41.645C11.605 31.9925 19.86 24.1275 30 24.1275C40.14 24.1275 48.395 31.9925 48.395 41.645C48.395 42.555 47.68 43.27 46.77 43.27C45.86 43.27 45.145 42.555 45.145 41.645C45.145 33.78 38.3525 27.3775 30 27.3775C21.6475 27.3775 14.855 33.78 14.855 41.645C14.855 46.325 15.895 50.6475 17.8775 54.1575C19.9575 57.895 21.3875 59.4875 23.89 62.0225C24.5075 62.6725 24.5075 63.68 23.89 64.33C23.5325 64.655 23.11 64.8175 22.6875 64.8175ZM45.99 58.805C42.1225 58.805 38.71 57.83 35.915 55.9125C31.0725 52.63 28.18 47.3 28.18 41.645C28.18 40.735 28.895 40.02 29.805 40.02C30.715 40.02 31.43 40.735 31.43 41.645C31.43 46.2275 33.77 50.55 37.735 53.215C40.0425 54.775 42.74 55.5225 45.99 55.5225C46.77 55.5225 48.07 55.425 49.37 55.1975C50.2475 55.035 51.0925 55.62 51.255 56.53C51.4175 57.4075 50.8325 58.2525 49.9225 58.415C48.07 58.7725 46.445 58.805 45.99 58.805ZM39.4575 65.5C39.3275 65.5 39.165 65.4675 39.035 65.435C33.8675 64.005 30.4875 62.0875 26.945 58.61C22.395 54.0925 19.8925 48.08 19.8925 41.645C19.8925 36.38 24.3775 32.09 29.9025 32.09C35.4275 32.09 39.9125 36.38 39.9125 41.645C39.9125 45.1225 42.935 47.95 46.6725 47.95C50.41 47.95 53.4325 45.1225 53.4325 41.645C53.4325 29.3925 42.87 19.4475 29.87 19.4475C20.64 19.4475 12.19 24.5825 8.38751 32.545C7.12001 35.1775 6.47001 38.265 6.47001 41.645C6.47001 44.18 6.69751 48.1775 8.64751 53.3775C8.97251 54.2225 8.55001 55.165 7.70501 55.4575C6.86001 55.7825 5.91751 55.3275 5.62501 54.515C4.03251 50.2575 3.25251 46.0325 3.25251 41.645C3.25251 37.745 4.00001 34.2025 5.46251 31.115C9.78501 22.0475 19.3725 16.165 29.87 16.165C44.6575 16.165 56.6825 27.5725 56.6825 41.6125C56.6825 46.8775 52.1975 51.1675 46.6725 51.1675C41.1475 51.1675 36.6625 46.8775 36.6625 41.6125C36.6625 38.135 33.64 35.3075 29.9025 35.3075C26.165 35.3075 23.1425 38.135 23.1425 41.6125C23.1425 47.17 25.2875 52.37 29.22 56.27C32.3075 59.325 35.265 61.015 39.8475 62.2825C40.725 62.51 41.2125 63.42 40.985 64.265C40.8225 65.0125 40.14 65.5 39.4575 65.5Z" fill="white"/>
</svg>
